<?xml version="1.0" encoding="UTF-8" standalone="no"?>
<!DOCTYPE svg PUBLIC "-//W3C//DTD SVG 1.1//EN"
 "http://www.w3.org/Graphics/SVG/1.1/DTD/svg11.dtd">
<!-- Generated by graphviz version 2.40.1 (20161225.0304)
 -->
<!-- Title: %3 Pages: 1 -->
<svg width="791pt" height="728pt"
 viewBox="0.00 0.00 791.00 728.00" xmlns="http://www.w3.org/2000/svg" xmlns:xlink="http://www.w3.org/1999/xlink">
<g id="graph0" class="graph" transform="scale(1 1) rotate(0) translate(4 724)">
<title>%3</title>
<polygon fill="#ffffff" stroke="transparent" points="-4,4 -4,-724 787,-724 787,4 -4,4"/>
<!-- 1 -->
<g id="node1" class="node">
<title>1</title>
<ellipse fill="none" stroke="#000000" cx="505" cy="-702" rx="109.381" ry="18"/>
<text text-anchor="middle" x="505" y="-698.3" font-family="Times,serif" font-size="14.00" fill="#000000">Building the wrong feature</text>
</g>
<!-- 4 -->
<g id="node4" class="node">
<title>4</title>
<ellipse fill="none" stroke="#000000" cx="358" cy="-615" rx="131.077" ry="18"/>
<text text-anchor="middle" x="358" y="-611.3" font-family="Times,serif" font-size="14.00" fill="#000000">Unnecessarily complex solutions</text>
</g>
<!-- 1&#45;&gt;4 -->
<g id="edge19" class="edge">
<title>1&#45;&gt;4</title>
<path fill="none" stroke="#000000" d="M475.6057,-684.6033C452.9206,-671.1775 421.3406,-652.4873 396.6167,-637.8548"/>
<polygon fill="#000000" stroke="#000000" points="398.2357,-634.7459 387.8473,-632.6647 394.6704,-640.77 398.2357,-634.7459"/>
<text text-anchor="middle" x="493" y="-654.8" font-family="Times,serif" font-size="14.00" fill="#000000">feature complexity</text>
</g>
<!-- 2 -->
<g id="node2" class="node">
<title>2</title>
<ellipse fill="none" stroke="#000000" cx="268" cy="-396" rx="105.0817" ry="18"/>
<text text-anchor="middle" x="268" y="-392.3" font-family="Times,serif" font-size="14.00" fill="#000000">Mismanaging the backlog</text>
</g>
<!-- 3 -->
<g id="node3" class="node">
<title>3</title>
<ellipse fill="none" stroke="#000000" cx="298" cy="-513" rx="39.7935" ry="18"/>
<text text-anchor="middle" x="298" y="-509.3" font-family="Times,serif" font-size="14.00" fill="#000000">Rework</text>
</g>
<!-- 2&#45;&gt;3 -->
<g id="edge15" class="edge">
<title>2&#45;&gt;3</title>
<path fill="none" stroke="#000000" d="M272.6764,-414.2381C277.5503,-433.2461 285.2481,-463.2675 290.8783,-485.2253"/>
<polygon fill="#000000" stroke="#000000" points="287.5041,-486.1579 293.3782,-494.9752 294.2847,-484.4192 287.5041,-486.1579"/>
<text text-anchor="middle" x="347" y="-458.3" font-family="Times,serif" font-size="14.00" fill="#000000">rejected stories</text>
<text text-anchor="middle" x="347" y="-443.3" font-family="Times,serif" font-size="14.00" fill="#000000">badly defined stories</text>
</g>
<!-- 5 -->
<g id="node5" class="node">
<title>5</title>
<ellipse fill="none" stroke="#000000" cx="320" cy="-309" rx="105.8812" ry="18"/>
<text text-anchor="middle" x="320" y="-305.3" font-family="Times,serif" font-size="14.00" fill="#000000">Extraneous cognitive load</text>
</g>
<!-- 2&#45;&gt;5 -->
<g id="edge3" class="edge">
<title>2&#45;&gt;5</title>
<path fill="none" stroke="#000000" d="M264.5149,-378.0098C263.4365,-367.763 263.6865,-355.013 269,-345 271.4147,-340.4496 274.6908,-336.348 278.4253,-332.6852"/>
<polygon fill="#000000" stroke="#000000" points="280.7206,-335.3278 286.0657,-326.1801 276.1827,-329.9979 280.7206,-335.3278"/>
<text text-anchor="middle" x="329.5" y="-348.8" font-family="Times,serif" font-size="14.00" fill="#000000">complex/large stories</text>
</g>
<!-- 3&#45;&gt;2 -->
<g id="edge16" class="edge">
<title>3&#45;&gt;2</title>
<path fill="none" stroke="#000000" d="M258.969,-508.9919C219.5017,-504.0381 162.4564,-494.0948 149,-477 136.6295,-461.2847 137.0799,-448.0596 149,-432 154.6691,-424.3621 170.5399,-417.7163 188.9159,-412.2848"/>
<polygon fill="#000000" stroke="#000000" points="190.0185,-415.611 198.7129,-409.5563 188.1405,-408.8676 190.0185,-415.611"/>
<text text-anchor="middle" x="211.5" y="-458.3" font-family="Times,serif" font-size="14.00" fill="#000000">duplicated work</text>
<text text-anchor="middle" x="211.5" y="-443.3" font-family="Times,serif" font-size="14.00" fill="#000000">bugfix&#45;to&#45;feature ratio</text>
</g>
<!-- 3&#45;&gt;4 -->
<g id="edge10" class="edge">
<title>3&#45;&gt;4</title>
<path fill="none" stroke="#000000" d="M318.0904,-528.628C324.526,-534.4519 331.216,-541.4881 336,-549 343.3498,-560.5406 348.5028,-574.7911 351.964,-587.0936"/>
<polygon fill="#000000" stroke="#000000" points="348.5981,-588.058 354.4846,-596.8671 355.3763,-586.3099 348.5981,-588.058"/>
<text text-anchor="middle" x="412" y="-560.3" font-family="Times,serif" font-size="14.00" fill="#000000">accidental complexity</text>
</g>
<!-- 4&#45;&gt;3 -->
<g id="edge11" class="edge">
<title>4&#45;&gt;3</title>
<path fill="none" stroke="#000000" d="M292.8052,-599.301C274.6543,-593.5436 258.4045,-586.5662 253,-579 245.2502,-568.1502 247.2242,-561.0174 253,-549 255.7873,-543.2007 260.0142,-538.0431 264.7814,-533.5709"/>
<polygon fill="#000000" stroke="#000000" points="267.1134,-536.1842 272.5884,-527.1136 262.6519,-530.7902 267.1134,-536.1842"/>
<text text-anchor="middle" x="292.5" y="-567.8" font-family="Times,serif" font-size="14.00" fill="#000000">technical debt</text>
<text text-anchor="middle" x="292.5" y="-552.8" font-family="Times,serif" font-size="14.00" fill="#000000">defects</text>
</g>
<!-- 4&#45;&gt;5 -->
<g id="edge2" class="edge">
<title>4&#45;&gt;5</title>
<path fill="none" stroke="#000000" d="M433.0498,-600.1177C453.5265,-594.4581 471.8003,-587.3326 478,-579 485.9591,-568.3028 478.8524,-562.3061 478,-549 473.1011,-472.5304 494.9354,-443.9973 456,-378 441.8044,-353.9378 416.2053,-337.9889 391.0151,-327.553"/>
<polygon fill="#000000" stroke="#000000" points="391.9941,-324.1785 381.4054,-323.8179 389.4581,-330.703 391.9941,-324.1785"/>
<text text-anchor="middle" x="545.5" y="-458.3" font-family="Times,serif" font-size="14.00" fill="#000000">suffering technical debt</text>
<text text-anchor="middle" x="545.5" y="-443.3" font-family="Times,serif" font-size="14.00" fill="#000000">lack of tools</text>
</g>
<!-- 7 -->
<g id="node7" class="node">
<title>7</title>
<ellipse fill="none" stroke="#000000" cx="133" cy="-105" rx="89.0842" ry="18"/>
<text text-anchor="middle" x="133" y="-101.3" font-family="Times,serif" font-size="14.00" fill="#000000">Waiting/Multitasking</text>
</g>
<!-- 4&#45;&gt;7 -->
<g id="edge8" class="edge">
<title>4&#45;&gt;7</title>
<path fill="none" stroke="#000000" d="M248.6429,-605.0158C143.3617,-592.2886 0,-565.3473 0,-513 0,-513 0,-513 0,-192 0,-156.9678 32.7154,-135.2848 65.6948,-122.3267"/>
<polygon fill="#000000" stroke="#000000" points="67.2627,-125.4792 75.4378,-118.7399 64.8443,-118.9102 67.2627,-125.4792"/>
<text text-anchor="middle" x="52" y="-348.8" font-family="Times,serif" font-size="14.00" fill="#000000">long iteration time</text>
</g>
<!-- 5&#45;&gt;3 -->
<g id="edge12" class="edge">
<title>5&#45;&gt;3</title>
<path fill="none" stroke="#000000" d="M369.7758,-325.1053C379.0259,-330.1519 387.7351,-336.662 394,-345 403.8997,-358.1755 425.9726,-453.6525 409,-477 401.0778,-487.8978 371.4239,-497.1894 344.7588,-503.6021"/>
<polygon fill="#000000" stroke="#000000" points="343.6932,-500.256 334.737,-505.9162 345.2681,-507.0765 343.6932,-500.256"/>
<text text-anchor="middle" x="432" y="-392.3" font-family="Times,serif" font-size="14.00" fill="#000000">defects</text>
</g>
<!-- 6 -->
<g id="node6" class="node">
<title>6</title>
<ellipse fill="none" stroke="#000000" cx="346" cy="-105" rx="91.784" ry="18"/>
<text text-anchor="middle" x="346" y="-101.3" font-family="Times,serif" font-size="14.00" fill="#000000">Psychological distress</text>
</g>
<!-- 5&#45;&gt;6 -->
<g id="edge4" class="edge">
<title>5&#45;&gt;6</title>
<path fill="none" stroke="#000000" d="M318.4538,-290.9212C316.6332,-264.8581 314.7041,-215.3185 322,-174 324.4885,-159.9069 329.4459,-144.8324 334.2123,-132.3795"/>
<polygon fill="#000000" stroke="#000000" points="337.4902,-133.6086 337.9432,-123.0235 330.9881,-131.0158 337.4902,-133.6086"/>
<text text-anchor="middle" x="344" y="-188.3" font-family="Times,serif" font-size="14.00" fill="#000000">burnout</text>
</g>
<!-- 9 -->
<g id="node9" class="node">
<title>9</title>
<ellipse fill="none" stroke="#000000" cx="484" cy="-192" rx="109.381" ry="18"/>
<text text-anchor="middle" x="484" y="-188.3" font-family="Times,serif" font-size="14.00" fill="#000000">Ineffective communication</text>
</g>
<!-- 5&#45;&gt;9 -->
<g id="edge14" class="edge">
<title>5&#45;&gt;9</title>
<path fill="none" stroke="#000000" d="M321.1606,-290.8993C323.3207,-272.496 329.4788,-244.4213 347,-228 355.439,-220.0908 376.1723,-213.1335 399.026,-207.4965"/>
<polygon fill="#000000" stroke="#000000" points="399.9912,-210.8649 408.9206,-205.1625 398.3841,-204.0519 399.9912,-210.8649"/>
<text text-anchor="middle" x="408.5" y="-254.3" font-family="Times,serif" font-size="14.00" fill="#000000">team size</text>
<text text-anchor="middle" x="408.5" y="-239.3" font-family="Times,serif" font-size="14.00" fill="#000000">async communication</text>
</g>
<!-- 8 -->
<g id="node8" class="node">
<title>8</title>
<ellipse fill="none" stroke="#000000" cx="511" cy="-18" rx="68.7879" ry="18"/>
<text text-anchor="middle" x="511" y="-14.3" font-family="Times,serif" font-size="14.00" fill="#000000">Knowledge loss</text>
</g>
<!-- 6&#45;&gt;8 -->
<g id="edge5" class="edge">
<title>6&#45;&gt;8</title>
<path fill="none" stroke="#000000" d="M374.1812,-87.8205C391.2774,-77.6121 413.6523,-64.6266 434,-54 444.4205,-48.5579 455.812,-43.0166 466.5612,-37.965"/>
<polygon fill="#000000" stroke="#000000" points="468.2108,-41.0578 475.8015,-33.6665 465.2582,-34.711 468.2108,-41.0578"/>
<text text-anchor="middle" x="465.5" y="-57.8" font-family="Times,serif" font-size="14.00" fill="#000000">team churn</text>
</g>
<!-- 7&#45;&gt;2 -->
<g id="edge9" class="edge">
<title>7&#45;&gt;2</title>
<path fill="none" stroke="#000000" d="M125.3114,-122.9699C112.8854,-154.897 92.0751,-222.8627 116,-273 138.0358,-319.1784 186.8151,-353.6181 223.2073,-374.1341"/>
<polygon fill="#000000" stroke="#000000" points="221.7178,-377.3089 232.1688,-379.0486 225.0837,-371.1713 221.7178,-377.3089"/>
<text text-anchor="middle" x="193" y="-261.8" font-family="Times,serif" font-size="14.00" fill="#000000">excessive work&#45;in&#45;progress</text>
<text text-anchor="middle" x="193" y="-246.8" font-family="Times,serif" font-size="14.00" fill="#000000">backlog inversion</text>
<text text-anchor="middle" x="193" y="-231.8" font-family="Times,serif" font-size="14.00" fill="#000000">lack of stories</text>
</g>
<!-- 7&#45;&gt;5 -->
<g id="edge13" class="edge">
<title>7&#45;&gt;5</title>
<path fill="none" stroke="#000000" d="M142.2265,-123.0251C155.1432,-146.4828 180.8061,-187.1644 214,-210 236.9372,-225.7795 252.2277,-210.6484 274,-228 291.1267,-241.6493 303.0059,-263.5243 310.3968,-281.1028"/>
<polygon fill="#000000" stroke="#000000" points="307.3178,-282.8369 314.2355,-290.8616 313.8319,-280.2744 307.3178,-282.8369"/>
<text text-anchor="middle" x="264" y="-188.3" font-family="Times,serif" font-size="14.00" fill="#000000">context switching</text>
</g>
<!-- 8&#45;&gt;9 -->
<g id="edge7" class="edge">
<title>8&#45;&gt;9</title>
<path fill="none" stroke="#000000" d="M542.7146,-34.0578C576.4022,-53.4093 622.2259,-87.743 602,-123 589.234,-145.2532 566.2073,-161.0165 543.8624,-171.8027"/>
<polygon fill="#000000" stroke="#000000" points="542.3417,-168.6493 534.6939,-175.9815 545.2449,-175.0189 542.3417,-168.6493"/>
<text text-anchor="middle" x="642" y="-101.3" font-family="Times,serif" font-size="14.00" fill="#000000">inexperience</text>
</g>
<!-- 9&#45;&gt;1 -->
<g id="edge17" class="edge">
<title>9&#45;&gt;1</title>
<path fill="none" stroke="#000000" d="M544.0589,-207.0639C592.6344,-223.2735 653,-254.4013 653,-309 653,-615 653,-615 653,-615 653,-650.9616 620.1238,-672.3507 585.3614,-684.9154"/>
<polygon fill="#000000" stroke="#000000" points="583.8896,-681.718 575.5324,-688.23 586.1265,-688.351 583.8896,-681.718"/>
<text text-anchor="middle" x="718" y="-465.8" font-family="Times,serif" font-size="14.00" fill="#000000">missing user needs</text>
<text text-anchor="middle" x="718" y="-450.8" font-family="Times,serif" font-size="14.00" fill="#000000">missing business needs</text>
<text text-anchor="middle" x="718" y="-435.8" font-family="Times,serif" font-size="14.00" fill="#000000">lack of involvement</text>
</g>
<!-- 9&#45;&gt;2 -->
<g id="edge1" class="edge">
<title>9&#45;&gt;2</title>
<path fill="none" stroke="#000000" d="M482.9472,-210.257C481.4946,-227.0528 478.0631,-252.4018 470,-273 459.5748,-299.6325 454.6319,-306.2018 435,-327 411.0946,-352.3255 376.5172,-368.6619 345.0192,-379.0428"/>
<polygon fill="#000000" stroke="#000000" points="343.8501,-375.7413 335.3581,-382.0766 345.9473,-382.4198 343.8501,-375.7413"/>
<text text-anchor="middle" x="511" y="-305.3" font-family="Times,serif" font-size="14.00" fill="#000000">lack of alignment</text>
</g>
<!-- 9&#45;&gt;6 -->
<g id="edge18" class="edge">
<title>9&#45;&gt;6</title>
<path fill="none" stroke="#000000" d="M404.4517,-179.5422C378.77,-173.7998 354.8702,-166.0012 347,-156 342.0497,-149.7093 340.4705,-141.5027 340.499,-133.5175"/>
<polygon fill="#000000" stroke="#000000" points="344.0055,-133.5746 341.3142,-123.3273 337.0278,-133.0164 344.0055,-133.5746"/>
<text text-anchor="middle" x="422" y="-144.8" font-family="Times,serif" font-size="14.00" fill="#000000">interpersonal/team conflict</text>
</g>
<!-- 9&#45;&gt;7 -->
<g id="edge20" class="edge">
<title>9&#45;&gt;7</title>
<path fill="none" stroke="#000000" d="M402.2191,-180.0497C337.0716,-170.4463 255.546,-158.2059 248,-156 222.6173,-148.5801 195.5192,-136.7701 174.0066,-126.3826"/>
<polygon fill="#000000" stroke="#000000" points="175.3655,-123.1507 164.8468,-121.8834 172.2794,-129.4337 175.3655,-123.1507"/>
<text text-anchor="middle" x="293" y="-144.8" font-family="Times,serif" font-size="14.00" fill="#000000">missing support</text>
</g>
<!-- 9&#45;&gt;8 -->
<g id="edge6" class="edge">
<title>9&#45;&gt;8</title>
<path fill="none" stroke="#000000" d="M491.4992,-173.9456C493.5825,-168.2869 495.6431,-161.9609 497,-156 505.4936,-118.6878 508.837,-74.5253 510.1513,-46.3932"/>
<polygon fill="#000000" stroke="#000000" points="513.6611,-46.2265 510.5748,-36.0912 506.667,-45.939 513.6611,-46.2265"/>
<text text-anchor="middle" x="552.5" y="-101.3" font-family="Times,serif" font-size="14.00" fill="#000000">knowledge silos</text>
</g>
</g>
</svg>
