<?xml version="1.0" encoding="UTF-8" standalone="no"?>
<!DOCTYPE svg PUBLIC "-//W3C//DTD SVG 1.1//EN"
 "http://www.w3.org/Graphics/SVG/1.1/DTD/svg11.dtd">
<!-- Generated by graphviz version 2.49.1 (20210923.0004)
 -->
<!-- Pages: 1 -->
<svg width="790pt" height="728pt"
 viewBox="0.00 0.00 790.00 728.00" xmlns="http://www.w3.org/2000/svg" xmlns:xlink="http://www.w3.org/1999/xlink">
<g id="graph0" class="graph" transform="scale(1 1) rotate(0) translate(4 724)">
<polygon fill="white" stroke="transparent" points="-4,4 -4,-724 786,-724 786,4 -4,4"/>
<!-- 1 -->
<g id="node1" class="node">
<title>1</title>
<ellipse fill="none" stroke="black" cx="505" cy="-702" rx="109.38" ry="18"/>
<text text-anchor="middle" x="505" y="-698.3" font-family="Times,serif" font-size="14.00">Building the wrong feature</text>
</g>
<!-- 4 -->
<g id="node4" class="node">
<title>4</title>
<ellipse fill="none" stroke="black" cx="358" cy="-615" rx="131.08" ry="18"/>
<text text-anchor="middle" x="358" y="-611.3" font-family="Times,serif" font-size="14.00">Unnecessarily complex solutions</text>
</g>
<!-- 1&#45;&gt;4 -->
<g id="edge19" class="edge">
<title>1&#45;&gt;4</title>
<path fill="none" stroke="black" d="M476.66,-684.61C453.62,-671.29 420.93,-652.39 395.69,-637.79"/>
<polygon fill="black" stroke="black" points="397.17,-634.6 386.76,-632.63 393.66,-640.66 397.17,-634.6"/>
<text text-anchor="middle" x="493" y="-654.8" font-family="Times,serif" font-size="14.00">feature complexity</text>
</g>
<!-- 2 -->
<g id="node2" class="node">
<title>2</title>
<ellipse fill="none" stroke="black" cx="269" cy="-396" rx="105.08" ry="18"/>
<text text-anchor="middle" x="269" y="-392.3" font-family="Times,serif" font-size="14.00">Mismanaging the backlog</text>
</g>
<!-- 3 -->
<g id="node3" class="node">
<title>3</title>
<ellipse fill="none" stroke="black" cx="298" cy="-513" rx="39.79" ry="18"/>
<text text-anchor="middle" x="298" y="-509.3" font-family="Times,serif" font-size="14.00">Rework</text>
</g>
<!-- 2&#45;&gt;3 -->
<g id="edge15" class="edge">
<title>2&#45;&gt;3</title>
<path fill="none" stroke="black" d="M273.3,-414.04C278.04,-432.84 285.73,-463.34 291.27,-485.31"/>
<polygon fill="black" stroke="black" points="287.88,-486.19 293.72,-495.03 294.67,-484.48 287.88,-486.19"/>
<text text-anchor="middle" x="347" y="-458.3" font-family="Times,serif" font-size="14.00">rejected stories</text>
<text text-anchor="middle" x="347" y="-443.3" font-family="Times,serif" font-size="14.00">badly defined stories</text>
</g>
<!-- 5 -->
<g id="node5" class="node">
<title>5</title>
<ellipse fill="none" stroke="black" cx="320" cy="-309" rx="105.88" ry="18"/>
<text text-anchor="middle" x="320" y="-305.3" font-family="Times,serif" font-size="14.00">Extraneous cognitive load</text>
</g>
<!-- 2&#45;&gt;5 -->
<g id="edge3" class="edge">
<title>2&#45;&gt;5</title>
<path fill="none" stroke="black" d="M265.63,-377.82C264.51,-367.7 264.69,-354.96 270,-345 272.43,-340.44 275.75,-336.35 279.53,-332.71"/>
<polygon fill="black" stroke="black" points="281.81,-335.37 287.25,-326.28 277.33,-329.99 281.81,-335.37"/>
<text text-anchor="middle" x="330" y="-348.8" font-family="Times,serif" font-size="14.00">complex/large stories</text>
</g>
<!-- 3&#45;&gt;2 -->
<g id="edge16" class="edge">
<title>3&#45;&gt;2</title>
<path fill="none" stroke="black" d="M259.6,-508.27C220.39,-503.57 163.43,-493.98 150,-477 137.59,-461.31 138.02,-448.01 150,-432 156.72,-423.02 165.62,-416.25 175.55,-411.16"/>
<polygon fill="black" stroke="black" points="177.24,-414.23 184.92,-406.93 174.37,-407.85 177.24,-414.23"/>
<text text-anchor="middle" x="212.5" y="-458.3" font-family="Times,serif" font-size="14.00">duplicated work</text>
<text text-anchor="middle" x="212.5" y="-443.3" font-family="Times,serif" font-size="14.00">bugfix&#45;to&#45;feature ratio</text>
</g>
<!-- 3&#45;&gt;4 -->
<g id="edge10" class="edge">
<title>3&#45;&gt;4</title>
<path fill="none" stroke="black" d="M317.69,-528.77C324.24,-534.49 331.11,-541.48 336,-549 343.51,-560.55 348.72,-574.93 352.18,-587.22"/>
<polygon fill="black" stroke="black" points="348.8,-588.14 354.69,-596.95 355.58,-586.39 348.8,-588.14"/>
<text text-anchor="middle" x="412" y="-560.3" font-family="Times,serif" font-size="14.00">accidental complexity</text>
</g>
<!-- 4&#45;&gt;3 -->
<g id="edge11" class="edge">
<title>4&#45;&gt;3</title>
<path fill="none" stroke="black" d="M279.71,-600.44C269.25,-595.36 259.8,-588.43 253,-579 245.2,-568.18 247.14,-560.98 253,-549 255.85,-543.17 260.2,-538.02 265.09,-533.6"/>
<polygon fill="black" stroke="black" points="267.43,-536.21 273.08,-527.25 263.07,-530.73 267.43,-536.21"/>
<text text-anchor="middle" x="292.5" y="-567.8" font-family="Times,serif" font-size="14.00">technical debt</text>
<text text-anchor="middle" x="292.5" y="-552.8" font-family="Times,serif" font-size="14.00">defects</text>
</g>
<!-- 4&#45;&gt;5 -->
<g id="edge2" class="edge">
<title>4&#45;&gt;5</title>
<path fill="none" stroke="black" d="M448.46,-601.78C459.98,-596.5 470.38,-589.16 478,-579 486,-568.33 478.85,-562.31 478,-549 473.1,-472.53 494.94,-444 456,-378 441.55,-353.5 415.16,-337.57 389.45,-327.35"/>
<polygon fill="black" stroke="black" points="390.62,-324.05 380.03,-323.83 388.18,-330.61 390.62,-324.05"/>
<text text-anchor="middle" x="545" y="-458.3" font-family="Times,serif" font-size="14.00">suffering technical debt</text>
<text text-anchor="middle" x="545" y="-443.3" font-family="Times,serif" font-size="14.00">lack of tools</text>
</g>
<!-- 7 -->
<g id="node7" class="node">
<title>7</title>
<ellipse fill="none" stroke="black" cx="134" cy="-105" rx="88.28" ry="18"/>
<text text-anchor="middle" x="134" y="-101.3" font-family="Times,serif" font-size="14.00">Waiting/Multitasking</text>
</g>
<!-- 4&#45;&gt;7 -->
<g id="edge8" class="edge">
<title>4&#45;&gt;7</title>
<path fill="none" stroke="black" d="M249.62,-604.71C144.25,-592.59 0,-566.43 0,-514 0,-514 0,-514 0,-191 0,-155.9 33.2,-134.68 66.55,-122.22"/>
<polygon fill="black" stroke="black" points="68.11,-125.38 76.39,-118.78 65.8,-118.78 68.11,-125.38"/>
<text text-anchor="middle" x="52" y="-348.8" font-family="Times,serif" font-size="14.00">long iteration time</text>
</g>
<!-- 5&#45;&gt;3 -->
<g id="edge12" class="edge">
<title>5&#45;&gt;3</title>
<path fill="none" stroke="black" d="M369,-325.02C378.53,-330 387.55,-336.51 394,-345 404.1,-358.29 426.08,-453.71 409,-477 394.91,-496.22 370.24,-505.16 347.74,-509.21"/>
<polygon fill="black" stroke="black" points="346.96,-505.79 337.59,-510.75 348,-512.71 346.96,-505.79"/>
<text text-anchor="middle" x="432" y="-392.3" font-family="Times,serif" font-size="14.00">defects</text>
</g>
<!-- 6 -->
<g id="node6" class="node">
<title>6</title>
<ellipse fill="none" stroke="black" cx="346" cy="-105" rx="91.78" ry="18"/>
<text text-anchor="middle" x="346" y="-101.3" font-family="Times,serif" font-size="14.00">Psychological distress</text>
</g>
<!-- 5&#45;&gt;6 -->
<g id="edge4" class="edge">
<title>5&#45;&gt;6</title>
<path fill="none" stroke="black" d="M318.5,-290.91C316.65,-265.27 314.58,-215.45 322,-174 324.52,-159.9 329.59,-144.82 334.41,-132.45"/>
<polygon fill="black" stroke="black" points="337.66,-133.77 338.18,-123.19 331.17,-131.13 337.66,-133.77"/>
<text text-anchor="middle" x="344" y="-188.3" font-family="Times,serif" font-size="14.00">burnout</text>
</g>
<!-- 9 -->
<g id="node9" class="node">
<title>9</title>
<ellipse fill="none" stroke="black" cx="484" cy="-192" rx="108.58" ry="18"/>
<text text-anchor="middle" x="484" y="-188.3" font-family="Times,serif" font-size="14.00">Ineffective communication</text>
</g>
<!-- 5&#45;&gt;9 -->
<g id="edge14" class="edge">
<title>5&#45;&gt;9</title>
<path fill="none" stroke="black" d="M321.13,-290.76C323.25,-272.58 329.37,-244.35 347,-228 357.75,-218.03 370.94,-210.81 384.85,-205.59"/>
<polygon fill="black" stroke="black" points="386.22,-208.82 394.57,-202.3 383.97,-202.2 386.22,-208.82"/>
<text text-anchor="middle" x="408.5" y="-254.3" font-family="Times,serif" font-size="14.00">team size</text>
<text text-anchor="middle" x="408.5" y="-239.3" font-family="Times,serif" font-size="14.00">async communication</text>
</g>
<!-- 8 -->
<g id="node8" class="node">
<title>8</title>
<ellipse fill="none" stroke="black" cx="511" cy="-18" rx="68.79" ry="18"/>
<text text-anchor="middle" x="511" y="-14.3" font-family="Times,serif" font-size="14.00">Knowledge loss</text>
</g>
<!-- 6&#45;&gt;8 -->
<g id="edge5" class="edge">
<title>6&#45;&gt;8</title>
<path fill="none" stroke="black" d="M373.4,-87.59C390.59,-77.5 413.34,-64.54 434,-54 444.83,-48.47 456.71,-42.86 467.83,-37.8"/>
<polygon fill="black" stroke="black" points="469.28,-40.98 476.95,-33.68 466.4,-34.6 469.28,-40.98"/>
<text text-anchor="middle" x="465.5" y="-57.8" font-family="Times,serif" font-size="14.00">team churn</text>
</g>
<!-- 7&#45;&gt;2 -->
<g id="edge9" class="edge">
<title>7&#45;&gt;2</title>
<path fill="none" stroke="black" d="M126.43,-123.13C113.75,-154.56 91.83,-222.82 116,-273 138.42,-319.56 188.22,-353.86 224.94,-374.03"/>
<polygon fill="black" stroke="black" points="223.5,-377.23 233.97,-378.86 226.79,-371.06 223.5,-377.23"/>
<text text-anchor="middle" x="193" y="-261.8" font-family="Times,serif" font-size="14.00">excessive work&#45;in&#45;progress</text>
<text text-anchor="middle" x="193" y="-246.8" font-family="Times,serif" font-size="14.00">backlog inversion</text>
<text text-anchor="middle" x="193" y="-231.8" font-family="Times,serif" font-size="14.00">lack of stories</text>
</g>
<!-- 7&#45;&gt;5 -->
<g id="edge13" class="edge">
<title>7&#45;&gt;5</title>
<path fill="none" stroke="black" d="M142.67,-123.06C155.26,-146.17 180.8,-187.12 214,-210 236.93,-225.8 252.18,-210.71 274,-228 291.21,-241.64 303.18,-263.62 310.59,-281.09"/>
<polygon fill="black" stroke="black" points="307.48,-282.75 314.43,-290.75 313.99,-280.17 307.48,-282.75"/>
<text text-anchor="middle" x="264" y="-188.3" font-family="Times,serif" font-size="14.00">context switching</text>
</g>
<!-- 8&#45;&gt;9 -->
<g id="edge7" class="edge">
<title>8&#45;&gt;9</title>
<path fill="none" stroke="black" d="M541.52,-34.2C575.31,-53.21 622.47,-87.58 602,-123 589,-145.49 565.43,-161.2 542.75,-171.81"/>
<polygon fill="black" stroke="black" points="541.19,-168.67 533.46,-175.91 544.02,-175.07 541.19,-168.67"/>
<text text-anchor="middle" x="642" y="-101.3" font-family="Times,serif" font-size="14.00">inexperience</text>
</g>
<!-- 9&#45;&gt;1 -->
<g id="edge17" class="edge">
<title>9&#45;&gt;1</title>
<path fill="none" stroke="black" d="M542.76,-207.3C591.2,-223.01 652,-253.57 652,-308 652,-616 652,-616 652,-616 652,-651.7 619.1,-672.65 584.43,-684.81"/>
<polygon fill="black" stroke="black" points="583.04,-681.58 574.63,-688.01 585.22,-688.23 583.04,-681.58"/>
<text text-anchor="middle" x="717" y="-465.8" font-family="Times,serif" font-size="14.00">missing user needs</text>
<text text-anchor="middle" x="717" y="-450.8" font-family="Times,serif" font-size="14.00">missing business needs</text>
<text text-anchor="middle" x="717" y="-435.8" font-family="Times,serif" font-size="14.00">lack of involvement</text>
</g>
<!-- 9&#45;&gt;2 -->
<g id="edge1" class="edge">
<title>9&#45;&gt;2</title>
<path fill="none" stroke="black" d="M483,-210.08C481.57,-226.65 478.14,-252.26 470,-273 459.55,-299.62 454.63,-306.2 435,-327 410.98,-352.45 376.06,-368.66 344.44,-378.84"/>
<polygon fill="black" stroke="black" points="343.28,-375.53 334.75,-381.81 345.33,-382.22 343.28,-375.53"/>
<text text-anchor="middle" x="511" y="-305.3" font-family="Times,serif" font-size="14.00">lack of alignment</text>
</g>
<!-- 9&#45;&gt;6 -->
<g id="edge18" class="edge">
<title>9&#45;&gt;6</title>
<path fill="none" stroke="black" d="M405.97,-179.45C379.73,-173.88 355.04,-166.15 347,-156 341.97,-149.66 340.47,-141.31 340.6,-133.26"/>
<polygon fill="black" stroke="black" points="344.11,-133.31 341.54,-123.03 337.14,-132.67 344.11,-133.31"/>
<text text-anchor="middle" x="422" y="-144.8" font-family="Times,serif" font-size="14.00">interpersonal/team conflict</text>
</g>
<!-- 9&#45;&gt;7 -->
<g id="edge20" class="edge">
<title>9&#45;&gt;7</title>
<path fill="none" stroke="black" d="M404.47,-179.72C338.97,-170.34 255.64,-158.2 248,-156 222.49,-148.66 195.22,-136.85 173.75,-126.55"/>
<polygon fill="black" stroke="black" points="175.14,-123.34 164.62,-122.1 172.07,-129.63 175.14,-123.34"/>
<text text-anchor="middle" x="293" y="-144.8" font-family="Times,serif" font-size="14.00">missing support</text>
</g>
<!-- 9&#45;&gt;8 -->
<g id="edge6" class="edge">
<title>9&#45;&gt;8</title>
<path fill="none" stroke="black" d="M491.37,-173.82C493.5,-168.23 495.62,-161.93 497,-156 505.71,-118.59 509,-74.17 510.25,-46.28"/>
<polygon fill="black" stroke="black" points="513.75,-46.23 510.64,-36.1 506.76,-45.96 513.75,-46.23"/>
<text text-anchor="middle" x="552.5" y="-101.3" font-family="Times,serif" font-size="14.00">knowledge silos</text>
</g>
</g>
</svg>
