<?xml version="1.0" encoding="UTF-8" standalone="no"?>
<!DOCTYPE svg PUBLIC "-//W3C//DTD SVG 1.1//EN"
 "http://www.w3.org/Graphics/SVG/1.1/DTD/svg11.dtd">
<!-- Generated by graphviz version 2.40.1 (20161225.0304)
 -->
<!-- Title: %3 Pages: 1 -->
<svg width="909pt" height="785pt"
 viewBox="0.00 0.00 909.00 785.00" xmlns="http://www.w3.org/2000/svg" xmlns:xlink="http://www.w3.org/1999/xlink">
<g id="graph0" class="graph" transform="scale(1 1) rotate(0) translate(4 781)">
<title>%3</title>
<polygon fill="#ffffff" stroke="transparent" points="-4,4 -4,-781 905,-781 905,4 -4,4"/>
<!-- 1 -->
<g id="node1" class="node">
<title>1</title>
<ellipse fill="none" stroke="#000000" cx="622" cy="-759" rx="109.381" ry="18"/>
<text text-anchor="middle" x="622" y="-755.3" font-family="Times,serif" font-size="14.00" fill="#000000">Building the wrong feature</text>
</g>
<!-- 4 -->
<g id="node4" class="node">
<title>4</title>
<ellipse fill="none" stroke="#000000" cx="404" cy="-672" rx="131.077" ry="18"/>
<text text-anchor="middle" x="404" y="-668.3" font-family="Times,serif" font-size="14.00" fill="#000000">Unnecessarily complex solutions</text>
</g>
<!-- 1&#45;&gt;4 -->
<g id="edge18" class="edge">
<title>1&#45;&gt;4</title>
<path fill="none" stroke="#000000" d="M580.2253,-742.3285C544.8934,-728.2281 494.1007,-707.9576 456.1143,-692.7979"/>
<polygon fill="#000000" stroke="#000000" points="457.3348,-689.5166 446.7498,-689.0607 454.7402,-696.018 457.3348,-689.5166"/>
<text text-anchor="middle" x="579" y="-711.8" font-family="Times,serif" font-size="14.00" fill="#000000">feature complexity</text>
</g>
<!-- 2 -->
<g id="node2" class="node">
<title>2</title>
<ellipse fill="none" stroke="#000000" cx="231" cy="-468" rx="105.0817" ry="18"/>
<text text-anchor="middle" x="231" y="-464.3" font-family="Times,serif" font-size="14.00" fill="#000000">Mismanaging the backlog</text>
</g>
<!-- 3 -->
<g id="node3" class="node">
<title>3</title>
<ellipse fill="none" stroke="#000000" cx="315" cy="-570" rx="39.7935" ry="18"/>
<text text-anchor="middle" x="315" y="-566.3" font-family="Times,serif" font-size="14.00" fill="#000000">Rework</text>
</g>
<!-- 2&#45;&gt;3 -->
<g id="edge14" class="edge">
<title>2&#45;&gt;3</title>
<path fill="none" stroke="#000000" d="M291.028,-482.8073C300.9031,-487.917 309.8931,-494.7814 316,-504 323.2683,-514.9716 323.8141,-529.3818 322.2062,-541.9373"/>
<polygon fill="#000000" stroke="#000000" points="318.7336,-541.4766 320.4493,-551.9316 325.6279,-542.6886 318.7336,-541.4766"/>
<text text-anchor="middle" x="405.5" y="-515.3" font-family="Times,serif" font-size="14.00" fill="#000000">rejected/badly defined stories</text>
</g>
<!-- 5 -->
<g id="node5" class="node">
<title>5</title>
<ellipse fill="none" stroke="#000000" cx="543" cy="-381" rx="105.8812" ry="18"/>
<text text-anchor="middle" x="543" y="-377.3" font-family="Times,serif" font-size="14.00" fill="#000000">Extraneous cognitive load</text>
</g>
<!-- 2&#45;&gt;5 -->
<g id="edge3" class="edge">
<title>2&#45;&gt;5</title>
<path fill="none" stroke="#000000" d="M283.9763,-452.4369C319.1036,-442.1911 366.2445,-428.5818 408,-417 429.8913,-410.928 453.8336,-404.4805 475.3964,-398.7449"/>
<polygon fill="#000000" stroke="#000000" points="476.353,-402.1123 485.1202,-396.1637 474.5569,-395.3466 476.353,-402.1123"/>
<text text-anchor="middle" x="468.5" y="-420.8" font-family="Times,serif" font-size="14.00" fill="#000000">complex/large stories</text>
</g>
<!-- 3&#45;&gt;2 -->
<g id="edge15" class="edge">
<title>3&#45;&gt;2</title>
<path fill="none" stroke="#000000" d="M280.363,-561.167C256.5819,-554.3212 228.0811,-544.2946 221,-534 213.3818,-522.9247 214.7201,-508.3362 218.4626,-495.6919"/>
<polygon fill="#000000" stroke="#000000" points="221.8298,-496.6673 221.8542,-486.0725 215.2281,-494.3396 221.8298,-496.6673"/>
<text text-anchor="middle" x="266.5" y="-515.3" font-family="Times,serif" font-size="14.00" fill="#000000">duplicated work</text>
</g>
<!-- 3&#45;&gt;4 -->
<g id="edge10" class="edge">
<title>3&#45;&gt;4</title>
<path fill="none" stroke="#000000" d="M346.7349,-581.0867C359.2081,-586.8283 372.7305,-594.9892 382,-606 390.994,-616.6836 396.3515,-631.1802 399.5226,-643.8662"/>
<polygon fill="#000000" stroke="#000000" points="396.173,-644.9365 401.704,-653.973 403.0154,-643.4596 396.173,-644.9365"/>
<text text-anchor="middle" x="459" y="-617.3" font-family="Times,serif" font-size="14.00" fill="#000000">accidental complexity</text>
</g>
<!-- 4&#45;&gt;3 -->
<g id="edge11" class="edge">
<title>4&#45;&gt;3</title>
<path fill="none" stroke="#000000" d="M338.8052,-656.301C320.6543,-650.5436 304.4045,-643.5662 299,-636 290.8632,-624.6085 293.7161,-609.5862 299.1148,-596.7516"/>
<polygon fill="#000000" stroke="#000000" points="302.4049,-597.987 303.5996,-587.4597 296.1007,-594.9442 302.4049,-597.987"/>
<text text-anchor="middle" x="338.5" y="-624.8" font-family="Times,serif" font-size="14.00" fill="#000000">technical debt</text>
<text text-anchor="middle" x="338.5" y="-609.8" font-family="Times,serif" font-size="14.00" fill="#000000">defects</text>
</g>
<!-- 4&#45;&gt;5 -->
<g id="edge2" class="edge">
<title>4&#45;&gt;5</title>
<path fill="none" stroke="#000000" d="M478.6764,-657.0961C499.5614,-651.3944 518.3831,-644.249 525,-636 578.0179,-569.9043 561.9677,-460.5662 550.3808,-409.2461"/>
<polygon fill="#000000" stroke="#000000" points="553.7145,-408.1352 548.0025,-399.212 546.9033,-409.7497 553.7145,-408.1352"/>
<text text-anchor="middle" x="628.5" y="-522.8" font-family="Times,serif" font-size="14.00" fill="#000000">suffering technical debt</text>
<text text-anchor="middle" x="628.5" y="-507.8" font-family="Times,serif" font-size="14.00" fill="#000000">lack of tools</text>
</g>
<!-- 7 -->
<g id="node7" class="node">
<title>7</title>
<ellipse fill="none" stroke="#000000" cx="192" cy="-18" rx="89.0842" ry="18"/>
<text text-anchor="middle" x="192" y="-14.3" font-family="Times,serif" font-size="14.00" fill="#000000">Waiting/Multitasking</text>
</g>
<!-- 4&#45;&gt;7 -->
<g id="edge8" class="edge">
<title>4&#45;&gt;7</title>
<path fill="none" stroke="#000000" d="M283.6073,-664.8114C164.5404,-654.3037 0,-629.0926 0,-570 0,-570 0,-570 0,-105 0,-76.6912 70.1235,-50.824 125.6136,-34.7863"/>
<polygon fill="#000000" stroke="#000000" points="126.7644,-38.0982 135.4321,-32.0055 124.8568,-31.3631 126.7644,-38.0982"/>
<text text-anchor="middle" x="52" y="-333.8" font-family="Times,serif" font-size="14.00" fill="#000000">long iteration time</text>
</g>
<!-- 6 -->
<g id="node6" class="node">
<title>6</title>
<ellipse fill="none" stroke="#000000" cx="439" cy="-294" rx="91.784" ry="18"/>
<text text-anchor="middle" x="439" y="-290.3" font-family="Times,serif" font-size="14.00" fill="#000000">Psychological distress</text>
</g>
<!-- 5&#45;&gt;6 -->
<g id="edge4" class="edge">
<title>5&#45;&gt;6</title>
<path fill="none" stroke="#000000" d="M521.7031,-363.1843C506.28,-350.2823 485.2426,-332.6837 468.2456,-318.465"/>
<polygon fill="#000000" stroke="#000000" points="470.1843,-315.5237 460.2684,-311.7919 465.6928,-320.8928 470.1843,-315.5237"/>
<text text-anchor="middle" x="519" y="-333.8" font-family="Times,serif" font-size="14.00" fill="#000000">burnout</text>
</g>
<!-- 9 -->
<g id="node9" class="node">
<title>9</title>
<ellipse fill="none" stroke="#000000" cx="378" cy="-105" rx="109.381" ry="18"/>
<text text-anchor="middle" x="378" y="-101.3" font-family="Times,serif" font-size="14.00" fill="#000000">Ineffective communication</text>
</g>
<!-- 5&#45;&gt;9 -->
<g id="edge13" class="edge">
<title>5&#45;&gt;9</title>
<path fill="none" stroke="#000000" d="M544.0062,-362.9339C546.2724,-324.8049 552.1938,-238.7221 560,-228 571.4743,-212.2396 589.4149,-226.3708 600,-210 608.6875,-196.564 609.4873,-186.8838 600,-174 583.1241,-151.0826 517.4656,-132.4745 461.8957,-120.3831"/>
<polygon fill="#000000" stroke="#000000" points="462.5179,-116.9371 452.0081,-118.276 461.059,-123.7834 462.5179,-116.9371"/>
<text text-anchor="middle" x="621.5" y="-246.8" font-family="Times,serif" font-size="14.00" fill="#000000">team size</text>
<text text-anchor="middle" x="621.5" y="-231.8" font-family="Times,serif" font-size="14.00" fill="#000000">async communication</text>
</g>
<!-- 8 -->
<g id="node8" class="node">
<title>8</title>
<ellipse fill="none" stroke="#000000" cx="334" cy="-192" rx="68.7879" ry="18"/>
<text text-anchor="middle" x="334" y="-188.3" font-family="Times,serif" font-size="14.00" fill="#000000">Knowledge loss</text>
</g>
<!-- 6&#45;&gt;8 -->
<g id="edge5" class="edge">
<title>6&#45;&gt;8</title>
<path fill="none" stroke="#000000" d="M391.4802,-278.3983C380.7886,-273.1992 370.1957,-266.4971 362,-258 351.909,-247.5379 345.1979,-232.8865 340.8828,-220.0451"/>
<polygon fill="#000000" stroke="#000000" points="344.1647,-218.806 337.9172,-210.2492 337.465,-220.8344 344.1647,-218.806"/>
<text text-anchor="middle" x="393.5" y="-239.3" font-family="Times,serif" font-size="14.00" fill="#000000">team churn</text>
</g>
<!-- 7&#45;&gt;2 -->
<g id="edge9" class="edge">
<title>7&#45;&gt;2</title>
<path fill="none" stroke="#000000" d="M164.8175,-35.1837C144.0626,-50.6388 119,-75.4246 119,-105 119,-381 119,-381 119,-381 119,-411.9693 146.0377,-433.5087 173.5441,-447.4083"/>
<polygon fill="#000000" stroke="#000000" points="172.3177,-450.7005 182.8519,-451.8318 175.3223,-444.3782 172.3177,-450.7005"/>
<text text-anchor="middle" x="167.5" y="-246.8" font-family="Times,serif" font-size="14.00" fill="#000000">excessive</text>
<text text-anchor="middle" x="167.5" y="-231.8" font-family="Times,serif" font-size="14.00" fill="#000000">work&#45;in&#45;progress</text>
</g>
<!-- 7&#45;&gt;5 -->
<g id="edge12" class="edge">
<title>7&#45;&gt;5</title>
<path fill="none" stroke="#000000" d="M276.2413,-24.0072C419.9216,-35.3956 697,-62.825 697,-105 697,-294 697,-294 697,-294 697,-331.068 662.7589,-352.5223 626.5684,-364.8459"/>
<polygon fill="#000000" stroke="#000000" points="625.3135,-361.5721 616.8426,-367.9355 627.4329,-368.2435 625.3135,-361.5721"/>
<text text-anchor="middle" x="747" y="-188.3" font-family="Times,serif" font-size="14.00" fill="#000000">context switching</text>
</g>
<!-- 8&#45;&gt;9 -->
<g id="edge7" class="edge">
<title>8&#45;&gt;9</title>
<path fill="none" stroke="#000000" d="M345.7025,-173.9736C349.1878,-168.316 352.9008,-161.9837 356,-156 359.8667,-148.5346 363.6514,-140.2387 366.9615,-132.5439"/>
<polygon fill="#000000" stroke="#000000" points="370.2292,-133.8018 370.8708,-123.2264 363.7744,-131.0934 370.2292,-133.8018"/>
<text text-anchor="middle" x="399" y="-144.8" font-family="Times,serif" font-size="14.00" fill="#000000">inexperience</text>
</g>
<!-- 9&#45;&gt;1 -->
<g id="edge16" class="edge">
<title>9&#45;&gt;1</title>
<path fill="none" stroke="#000000" d="M483.0317,-110.0197C592.3573,-117.3108 754.0757,-134.5662 801,-174 825.857,-194.8891 825,-210.5312 825,-243 825,-672 825,-672 825,-672 825,-700.9971 754.1391,-726.099 696.1494,-741.7865"/>
<polygon fill="#000000" stroke="#000000" points="695.0011,-738.4699 686.2305,-744.4135 696.7933,-745.2366 695.0011,-738.4699"/>
<text text-anchor="middle" x="863" y="-420.8" font-family="Times,serif" font-size="14.00" fill="#000000">poor research</text>
</g>
<!-- 9&#45;&gt;2 -->
<g id="edge1" class="edge">
<title>9&#45;&gt;2</title>
<path fill="none" stroke="#000000" d="M301.7682,-118.0123C286.1245,-123.2681 270.6054,-130.6454 258,-141 238.1818,-157.2794 231,-166.3528 231,-192 231,-381 231,-381 231,-381 231,-400.4525 231,-422.3516 231,-439.3123"/>
<polygon fill="#000000" stroke="#000000" points="227.5001,-439.6694 231,-449.6694 234.5001,-439.6695 227.5001,-439.6694"/>
<text text-anchor="middle" x="280" y="-290.3" font-family="Times,serif" font-size="14.00" fill="#000000">lack of alignment</text>
</g>
<!-- 9&#45;&gt;6 -->
<g id="edge17" class="edge">
<title>9&#45;&gt;6</title>
<path fill="none" stroke="#000000" d="M419.8139,-121.7326C427.4873,-126.7559 434.4878,-133.0977 439,-141 450.7383,-161.5576 446.1308,-227.6591 442.2489,-265.918"/>
<polygon fill="#000000" stroke="#000000" points="438.7635,-265.5959 441.1874,-275.9097 445.7243,-266.3354 438.7635,-265.5959"/>
<text text-anchor="middle" x="521" y="-188.3" font-family="Times,serif" font-size="14.00" fill="#000000">interpersonal/team conflict</text>
</g>
<!-- 9&#45;&gt;7 -->
<g id="edge19" class="edge">
<title>9&#45;&gt;7</title>
<path fill="none" stroke="#000000" d="M341.6958,-88.019C311.6742,-73.9766 268.9061,-53.9722 236.7656,-38.9388"/>
<polygon fill="#000000" stroke="#000000" points="238.1218,-35.7092 227.5808,-34.6426 235.156,-42.0499 238.1218,-35.7092"/>
<text text-anchor="middle" x="342" y="-57.8" font-family="Times,serif" font-size="14.00" fill="#000000">missing support</text>
</g>
<!-- 9&#45;&gt;8 -->
<g id="edge6" class="edge">
<title>9&#45;&gt;8</title>
<path fill="none" stroke="#000000" d="M310.9425,-119.2921C290.2063,-125.1584 271.1661,-132.5641 265,-141 255.5806,-153.8867 266.1361,-164.9208 281.5948,-173.3954"/>
<polygon fill="#000000" stroke="#000000" points="280.0752,-176.5485 290.5916,-177.8357 283.1733,-170.2714 280.0752,-176.5485"/>
<text text-anchor="middle" x="310.5" y="-144.8" font-family="Times,serif" font-size="14.00" fill="#000000">knowledge silos</text>
</g>
</g>
</svg>
